<svg xmlns="http://www.w3.org/2000/svg" stroke-linejoin="round" viewBox="-180 -90 360 180"><g stroke-linejoin="round"><path d="M-180 90h360V-90h-360z" fill="#fff"/><path d="M180 90V-90h-360V90h360" fill="#97d3e9"/><g fill="#fff" stroke-width=".5"><path d="m-11.44-6.79-6.19-7.94 1.65-8.99 6.42-6.21.26-2.63 3.37-3.2 3.76.59 8.43-1.94 4.77.02-.69 3.3 8.75 3.52 2.45-2.57 7.37 1.97 5.36-.35-.12 3.4-1.73-2.03.31 1.14 4.75 10.1 5.24 6.87 1.89 1.3 6.52-1.31-2.54 6.41L39.2 4.68l1.58 10.01-5.99 5.09.67 4.34-2.89 1.61-.37 3.02-3.98 4.02-8.15 2.03-1.69-.66-6.59-16.07 1.9-7.34-1.78-5.69L8.8 1.11l.6-4.84-3.5-.53-1.57-2.01-12.3 1.91-3.47-2.43M50.2 16l-3.1 8.94-3.06.05-.79-2.93 1.2-5.84 3.26-1.63 1.48-2.55L50.2 16M-61.14 79.98l1.57.06-.59.96-6.13-.74 5.15-.28m15.99-1.93 1.82 1.98-10.83.6 5.5-2.58h3.51m-116.1.33 2.04 1.12-4.5-.9.6-.38 1.86.16"/><path d="m-180 84.71 10.05-.83 11.88 1.49 14.96-.33-10.48-1.35.73-1.65-3.98-.94 10.42-.76-8.91-1.28-3.04-2.17 7.04.51 6.42-2.2 25.21-.72 5.76-.77 6.38 1.47 7.44-.31-3.56-2.25 27.46 1.35 7.28-.96 1.81-.96-1.41-2.33 1.29-2.84 4.25-2.24 5.19-1.37-7.86 4.68 3.86 2.77.98 2.98-9.77 2.93-6.64.08 3.58 1.2-4.36 1.27 19.8 4.04 29.67-2.88-1.14-1.08-5.95.2-.14-1.12 18.26-3.21 2.07-1.98 8.58-2.22 33.96-.47 6.78-1.96 4.78 1.28 15.88-3.96 6.9 2.13 7.46-.02.78 1.3-1.86 1.08 1.26.37-1.12 1.17 1.92.41 3.99-2.39 14.13-3.66 7.79 1.18 7.05-1.83 3.35 1.37 7.42-1.05 6.23 1.39 15.24-1.96 2.39 1.64 8.03-.03 25.72 4.78-7.64 4.54 3.43 2.51-5.23.41-1.98 1.79 9.61 2.88 10.6.88V90h-360v-5.29"/><path d="m-121.21 73.5 1.29.16 1.2-.18-1.51.61-2.39-.43 1.41-.16m-4.35-.02 1.53.39-3.25-.41.72-.21 1 .23m25.13-1.63 3.64.1.59.57-6.13-.63 1.9-.04m28.36-.66 1.82-2.31 1.92 2.53-6.62.66 2.88-.88M48.68-14l-5.2 1.36-1.21-4.83-7.64-10.59-.36-3.16 1.89-5.43-8.52-.01-1.47-2.8 7.34-2.56 6.86 1.01 1.33-.95-1.62-1.59 8.5 1.74 1.81 1.55-1.19 2.68 4.63.61-1.14-3.06 2.05-.92-1.02-1.17-.91.98-2.5-3.47 2.73-.65v-1.59l-4.45.29-2.12-1.83 1.08-2.06 1.03.58 2.19-1.82 10.57.89-1.37-1.16 1.47-2.05 7.63-1.38 4.36 1.9 3.46-1 3.15 3.63 3.34-.21 3.98 1.86 4.87-1.59 5.03 1.07 1.6-2.32 9.62 2.77 9.4-.23 2.86-2.45-.56-.79 3.39-.71 2.38.67 1.71 3.03 3.33 1.97 4.04-.69-1.93 3.34-2.07.17-1.32 4.09-2.18 1.12 1.56 4.68-2.6.69.37-2.5-2.15-1.22.61-1.44-4.27.65.59-2.05-4.11 2.21 2.17 1.58 2.66-.29-3.21 2.54 2.76 3.22.03 2.67-6.05 6.24-5.45 2.44-1.92-1.38-2.64 1.97 3 4.47.32 3.61-4.04 3.07-5.06-4.81-.88 4.17 3.74 3.72 1.27 4.23-2.84-1.47-3.05-5.03-1.18-9.14-2.97.89.13-2.17-2.9-4.56-4.44 1.27-6.66 5.6-.46 5.54-2.32 2.39-4.01-8.02-.9-5.37-2.16.48-4.1-4.55-12.88-1.38-4.55-3.51-.52 1.77 3.37 4.53 2.22-.1 2.35-2.28.49 2.16 2.96 1.93-3.53 4.43-7.6 3.88"/><path d="m32.73-35.14.22-.25 1.63-.28-1.6 1.1-.25-.57M27.62-41l-1.26.85-.24-1.68 2.87.53-1.37.3m90.01 49.45.27-.35 1.23.61-2.39.32.89-.58m-1.92-.08-1.15.38-9.19-1.9.68-.95 4.71.57 4.95 1.9m-9.89-2.52-3.24-1.63-7.29-9.7 2.19.23 6.36 5.15 2.27 3.16-.29 2.79M117.48-.1l-1.33 4.11-1.29.1-4.64-1.18-1.27-3.35 8.18-6.51 2.05 1.52-1.87 2.18L119-.9l-1.52.8M80.15-9.82l1.64 2.3-1.44 1.55-.65-2.23.45-1.62m39.54-.73-1.19 1.23-1.33.95 2.34-3 .18.82m-8.68-9.15-1.53 1.5-.82-.31.46-1.31 1.89.12m9.29 29.96-1.33-.7.93-.2.4.9m4.67-1.37.98-.46 1.39-.03-3.88 1.84 1.51-1.35m-4.25-.65.62.3 1.56-.45-.14.56-2.84.16.8-.57m13.49-1.34-.1-.76.39-.69.22.76-.51.69"/><path d="m137.61 8.41 1.06-1.09-.74-1.93-4.95-1.28-.99-1.29 1.71-.61-3.18-1.27 3.47-.16 1.47 2.59 1.98-1.67 3.56.9.03 6.52-3.42-.71m-11.43-4.8-.19-.43 1.26.28-.38.33-.69-.18m1.72-.22 1.47-.59 1.46 1.06-.84-.41-2.09-.06m-5.18-3.82-2.68.95 3.3.1-1.83 1.28 1.65 3.44-2.19-2.71-1.17 3.04-1.03-2.87 1.27-3.37 5.2-.85-2.52.99m5.25.68.41.53-.68-.51-.3-1.28.53-1.16.04 2.42m-2.29-6.3-2.07-1.78-1.69.64 3.49-2.57 1.13 2.57-.86 1.14m-2.06-3.9-1.24.24 1.7-1.52-.1.95-.36.33m-1.65-.96-.09-.98 1.24.31-.48.84-.67-.17m2.79.07.12-.95-.61-.77 1.23.4-.74 1.32m-4.44-2.63 1.21.4-.27.86-.43-.49-.51-.77m1.41-.86 2.22.55.13 1.24-3.45-1.32.09-4.65 1.62.29-.61 3.89m.22-10.67-.77 2.21-.43.82-.64-1.59 1.84-1.44m11.84-8.52-.78.82-.65-.29 2.28-1.16-.85.63"/><path d="m138.98-34.67-7.99.78 1.01.74-1.31 2.12-1.28-2.27 3.21-2.13 3.06-.1 5.69-5.85-.6 5.54-1.79 1.17m.98-6.9 2.01-3.98 3.35 1.17.22 1.12-2.36 1.26-3.22.43M-53.55-2.33l-.97.02.56-3.45 2.3 1.6-1.89 1.83m44.26-36.03-.1-4.67 8.01-.99.19-1.99-3.4-2.67 2.97.04-.31-1.14 10.05-3.75.42-3.58 2.04-.62-.93 2.26 1.29 1.46 8.72-.42 1.61-.76.31-2.22 2.54.38-.78-2.16 5.78-.84-7.8-.69.22-2.47 3.86-1.92-1.5-.9-6.05 3.26-.73 1.41 1.67 1.26-2.91 3.98-2.94.74-2.58-4.11-4.69.88.24-4.02 13.27-7.21 5.37-1.21 3.62-.16 12.89 3.73L38.38-66l-5.2-.63 3.83 2.78.17-1.29 2.41.62 2.5-1.96 1.86.41-.5-2.5 2.8.32.1 1.58 7.37-2.19 6.22.58.61-1.57 7.96 1.76-1.82-2.94 2.51-1.81 3.39.06-.74 1.37 1.82 3-2.39 2.09 1.14.15 2.63-1.59-1.95-3.69 1.56-1.38 1.7 1.68 1.22-1.12 3.92.52-.99-1.9 23.84-4.05 9.78 1.85-4.73 1.67 17.58.61 4.31 2.78.96-1.05 7.62.35-.72-.93 1.32-.43L159-70.87l1.94 1.43 19.06.48v3.98l-2.59.37 1.82 2.31-8.9 2.42-6.79.01-1.52 1.63 1.17.62-1.07 2.76-5.33 3.85-.88-5.76 8.56-5.78-4.35 2.01-.82-1.23-2.58.34-2.5 1.67.82.62-12.84.1-7.07 4.31 6.22 1.64-1.29 4.64-5.19 5.05-4.09 1.18.25-2.75 2.07-.17 1.93-3.34-4.04.69-5.92-5.37-4.07-.09-3.12 3.74-9.4.23-9.62-2.77-1.6 2.32-5.03-1.07-4.87 1.59-3.98-1.86-3.34.21-3.15-3.63-3.46 1-4.36-1.9-7.63 1.38-1.47 2.05 1.37 1.16-10.57-.89-2.19 1.82-1.03-.58-1.08 2.06 2.63 1.99-2.42 1.79 1.9 2.8-.76.66-11.14-4.09 2.44-2.02-4.16.99 1.37 1.16-2.45.75-1.43-.97.85-.75-2.55-.5L28-42.01l-5.37 1.75 1.4 2.04-.88 1.8-1.48-.42-2.3-5.04-6.23-3.86-.55 1.65 5.89 3.92-1.61-.27-.77 2.45-.69-2.06-6.52-4.32-5.79 1.29-5.25 6.41-3.72.64-3.03-.84-.39-1.49"/><path d="m8.43-39.17-.27-1.78 1.05-.26.46 2.03-1.24.01m.32-3.46.64-.38-.16 1.63-.45-.2-.03-1.05M-9.69-53.88l2.12-1.25 1.91.58-2.9 2.88-1.42-.15.29-2.06"/><path d="m-5.08-55.06-.71-2.76 2.78-.82-1.06 1.09 2.11-.13-1.16 1.71 4.8 3.23-.23 1.45-7.23 1.13 2.37-1.27-1.86-.56 2.32-1.99-2.13-1.08m17.77-.55-.6.81-1.19-.98 1.47-.33.32.5m-32.66-8.03-4.36-1.97 9.82-.85.9 1.33-6.36 1.49m-150.92-1.9-2.07 1.29-5.73-1.86-1.31 1.13v-3.98l5.66 2.62 4.44.36-.99.44m-6.77-5.59-2.34.3v-.69l.98-.04 1.36.43M13.83-37.1l-1.26-1.03 2.95-.1-.42 1.61-1.27-.48m9.45-40.98 1.44.23-3.99.17.08-.57 2.47.17m-4.81.25-2.56 1.06-5.47-2.88 11.1.69-3.07 1.13m-1.1-2.49 5.55-.34 4.49.6-4.39.66-5.65-.92m6.88 44.95 1.5.19.54-.12-1.57.38-1.21-.36.74-.09m118.31-12.49.95 1.72-1.6-.67.74-7.56 2 5.39-1.48-.33-.61 1.45M180-70.83l-1.1.05-.17-.32 1.27-.42v.69m-39.96-2.49 2.02-.54 1.54.65h-1.51l-2.05-.11m-73.83-3.49 2.64.27-10.37 2.23-3.06 1.94 2.12 1.65-5.94-.75 4.03-3.61 10.58-1.73m82.01 1.46 2.51.27-4.61-.09 2.1-.18m-11.25.09 1.86-.88 6.26.58-6.13.95-1.99-.65m-34.13-4.02 2.53.57-5.93.79 1.82-1.31 1.58-.05m-7.87.24-3.79-1.3 4.76-.91 4.25 1.47-5.22.74M51.52-80.7l-3.93.69-2.74-.58 5.19-.33 1.48.22m-206.74 61.46-.72.18.08-1.21 1.05.76-.41.27m-1.39-1.77.35.09.26.16-.41.19-.2-.44m-.72-.09.08-.12.49.04-.03.11-.54-.03m-.92-.44.22-.18.38.4-.48.01-.12-.23m-1.12-.67-.09.33-.34-.19.2-.17.23.03m61.84-2.78.34 4.35 2.76 2.5 7.38-3.4-1.88 5.65 5.52.62.01 4.87 1.96 1.61 3.38-.46.63 1.61L-79.12-9l-1.77 1.78-4.77-2.71-1.83-3.37-16.01-4.99-1.99-1.66-.54-2.82-8.75-9.03 5.35 8.61-2.75-1.55-5.12-8.31-3.32-1.56-3.78-5.7-.29-7.87 2.1 1.08-.25-1.9-2.78-1.42-1.82-.41-6.64-7.29-13.03-2.76-4.61 1.72 1.1-2.12-7.81 5.29-6.36 1.59 7.75-4.52-4.93.25-3.38-1.84-.38-1.56 4.95-2.72-7.33-.88 6.43-.45-5.08-2.24 10.18-3 20.08 2.46 8.36-1.58 19.26 3.1.71-1.27 6.72 1 3.78-.93 1.54 1.29 1.9-1.78-2.16-2.12 2.5-.57 6.54 4.56 1.83-2.68 4.3 1.21-.17 1.56-4.38.55-8.47 5.66-.44 1.95 2.38 1.86 10.03 1.94 2.36 3.94 1.31-1.35-1.23-2.11 3.29-1.86-1.98-2.27 1.18-1.05-.77-2.47 4.27-.12 4.25 1.38.3 2.1 1.64.75 3.07-2.13 2.78 4 6.04 3.07.08 1.12-4.35 1.91-6.37.01-4.7 3.41 6.04-2.41.59 2.99 1.3.5 1.65-.14 1-1.13.72 1.09-5.56 2.37-.8-.92 1.73-.82-2.71.15-3.51 2.05.68 1.45-5.56 2.14.47 1.1-.88 1.18-.41-1.93.62 3.6-5.61 4.11.96 6.23-3.33-4.73-4.71-.44-.99 1.22-5.28-.32-2.45 1.65-.39 2.84"/><path d="m-128.06-49.99 2.3-.31 2.25 1.79-2.15-.32-2.4-1.16m-4.12-2.65-.87-.77-.13-.76 1.43.05.57 1.94-1-.46m-22.49-4.82 1.44-.51 1.09.38-1.87.86-.66-.73m-11.8-2.92.8.09.09.38-1.88-.3.99-.17m-3.06-2.6-2.02-.34-.18-.46 3.04.48-.84.32m68.44-6.6-12.22 1.04-4.03-1.42 4.92-.41-6.98-1.19 4.21-1.75 7 1.66.67-1.59 6.43 3.66m-18.13-2.94-3.87 1.62-2.84-.97 1.99-1.81-.98-.61 9.41.81-3.71.96m12.62-1.08 1.34-.04.76.22-.88.66-1.22-.84m-5.62-.82-5.49-.8 2.31-1.26 6.33 1.01-1.43-.96.92-.36 3.88 1.31-6.52 1.06m-4.12-2.46-3.56.83-2.95-.07 3.75-1.39 2.76.63m5.08-1.27 1.41.15-3.68.27.81-.32 1.46-.1m8.31-.19-2.54-.96 5.82 1.39-1.63-.11-1.65-.32m-8.01-.46 1.3.2-2.88.19 1.04-.44.54.05m27.19 16.62.52-.73 1.37.01-1.19.74-.7-.02m2.78-1.23-2.12-.69-4.11.56 1.34-2.2 5.78 2.01-.89.32m-17.93-6.3.7-.43 2.57 1.03-4.15-.29.88-.31m.87-3.28 1.33 1.33-5.78-.85 2.06-.2-1.1-.65 1.18-.48 3.24.37-.93.48m2.64.93-.09-1.8h4.99l-3.76 1.84-1.14-.04m1.43-3.24-.18.71-2.66-.34 1.97-.72.87.35m-1.98-1.14-1.16-.31 17.29 1.83-9.93.4-6.2-1.92m-4.92 1.38-1.69-1.28 4.83.08-.42 1.26-2.72-.06m7.04-2.46-2.33-.04-.27-.27 2.02.01.58.3m-4.79-1.35 1.88.1 1.19.35-1.75.57-1.32-1.02m9.18-1.64 3.64 1.17-7.07 1-3.83-1.82 1.97-1.05 5.29.7m27.79 70.14-.02-.39.78-.1-.04.75-.72-.26m-16.11-7.49-.45-.59 2.02.56-1.01.19-.56-.16m10.53-.51.96-.14.69.28-1.59.28-.06-.42m-2.53-.92 1.45.68-6.14.27 2.13-.33-.86-1.25 3.42.63m-8.22-2.99 3.69 2.23-3.46.19-4.04-2.78-3.17.74 2.7-1.29 4.28.91m-.42-2.3.52-.59.36 1.41-.25.05-.63-.87m.62-2.46.79.45-.17.71-.17-.65-.45-.51m-.72.17.66.03.03.26-1.09.16.4-.45m14.37-19.52.13-.65 2 .6-.86.47-1.27-.42m9.2-2.92 1.46.06.41 2.59-6.35-1.24 3.55-3.73-.93 1.82 1.86.5m-8.65-.09-.93-.47 2.71.76-.48.02-1.3-.31m-16.77-12.62.43-.37.66.23-.39.53-.7-.39m5.25-5.99-.76.86-1.37-.44.43-.56 1.7.14"/><path d="m-71.2-70.92 4.23 1.73-1.84.47 6.96 1.86-2.07 1.86-4.1-1.26 3.01 3.59-12.7-1.56-.19-1.08 3.94-.14 1.03-2.28-6.03-2.44-9.72-.24-1.53-1.83 1.8-1.3 2.58-.26.06 1.27 3.45-1.22 1.57 1.69 2.93-.69 6.62 1.83m50.35-11.81-11.05.53 19.69.91-7.84 1.11 2.32.05-1.97 1.38 1.23 1.76-3.21.36 1.85.53-.84.94 1.3.86-4.2.99 1.27 1.13-2.49-.15 3.04 1.67-3.79-.77-.82 1.2 4.01.1-17.46 4.67-3.01 2.78-.56 2.58-4.88-.76-3.37-2.77-2.34-3.56 3.1-2.74-3.81.32.32-1.21 2.97.25-4.44-1.08 1.11-.94-3.87-2.93-9.91-.54-2.9-.95 4.64-.37-6.54-.66 7.59-1.35-2.31-.73 7.74-1.91 15.76.37-2.24-.97 11.67-1.02 14.24.92"/><path d="m-76.25-72.83-3.24.09-1.34-.95 2.77.04 1.81.82m-6.93-9.49 10.35-.91 10.98.6-15.06 3.31 1.52.79-5.17 2.35-8.93-.29 1.23-1.43 3.28.36-2.98-.83 2.87-.98-1.84-.9 5.08-.21-9.74-1.43 8.41-.43M147.91 43.21l-1.86.34-1.31-2.85 3.55.18-.38 2.33m-24.25-9.32-5.64 1.17-2.99-.86.77-1.99-2.46-6.09.89.18-.49-3.82 7.12-2.8 4.83-5.45 3.93.74 2.74-3.84 4.13.73-.99 3.14 4.72 2.71 2.3-7.04 3.87 8.29 6.75 7.11-.25 5.57-2.89 5.79-3.68 1.61-5.68-1.02-2.43-3.64-1.38.88.98-2.36-1.82 1.99-1.72-2.27-4.73-1.03-5.88 2.3m-303.45-17.87-.13.48-.08.06v-.49l.21-.05M159.7 9.24l.66.16.49.47-1-.08-.15-.55m-1.11-1.49-.38-.33 1.71 1.12-.79-.43-.54-.36m-2.1-.98.05-.17 1 .75-.64-.17-.41-.41m-10.66-1.89 1.82 1.2-.46 1.31 3.5 3.19-5.95-2.95-3.71 1.49L141 2.6l4.83 2.28m9.77 2.04-.87-1.02-.08-.86 1.37 1.5-.42.38m-7.28-1.17 2.49-.29 1.53-1.15-2.1 2.01-1.92-.57"/><path d="m152.64 4.18-1.26-1.14-.72-.3 2.17 2.03-.19-.59m19.31 37.33.85-1.02 1.45.86-1.17 2.5-3.75 2.79-2.65-.42 5.27-4.71m3.12-.08-1.25-1.92.88-2.13-2.06-2.85 3.32 3.03 2.56.14-3.45 3.73m-9.6-19.75-1.3-1.24-.14-.33 3.09 2.05-1.65-.48m11.91-3.52.29-.78 1.05.25-.17.52-1.17.01m1.22-1.52.81-.26.59-.31v.49l-1.4.08m-11.38-.75.62.58-.32.13-.3-.71m.05-.15-.48-.07-.16-1.04.48.3.16.81m-5.15-5.26-.42.34-.38-.62.6.25.2.03m-.84-1.36.25.66-.95-1.46h.34l.36.8M68.94 48.63l1.58.44.04.19-1.82.52.2-1.15m-137.58 6.95-3.62-1.08-2.4-1.66 3.55 1.23 2.48-1.43 3.58 2.06-3.59.88"/><path d="m-69.46 52.29-1.97 1.57-3.52-1.6-.66-3.59 2.89-6.29-1.61.84 2.89-10.8 1.07-14.07-5.64-3.7-5.4-9.91 1.64-2.08-1.2-.41.88-3.02 2.96-3.08-.34-4.67 5.72-3.92.05 3.37 1.76-3.09 1.75 1.61 6.31-.17-.51.77 5.24 3.98 3.19.21-.56 3.45 1.58.19 1.62-2.08.93 4.28 5.48 1.47.33 1.14 4.6.18 4.38 2.28.87 2.19-3.94 5.72-2.27 8.88-6.71 2.95-1.24 3.78-4.92 5.73-4.62-.49 1.64 2.99-2.44 1.82-3.11.11-.41 2.2-2.37.03 1.66 1.5-3.83 2.99 1.65 1.69-3.5 3.49.99 1.62-1.31-.06m11.71-.74-1.65.65-1.8-.35 2.65-.75.8.45"/></g></g></svg>